<svg xmlns="http://www.w3.org/2000/svg" width="256" height="256" viewBox="0 0 256 256" preserveAspectRatio="xMidYMid"><path d="M255.8 87.1C255.7 86.8 255.7 86.5 255.6 86.2 255.6 86 255.5 85.8 255.4 85.6 255.4 85.4 255.3 85.1 255.2 84.8 255.1 84.6 255 84.5 254.9 84.3 254.8 84 254.7 83.8 254.5 83.6 254.4 83.4 254.3 83.2 254.2 83.1 254.1 82.8 253.9 82.6 253.8 82.4 253.6 82.2 253.5 82.1 253.4 81.9 253.2 81.7 253 81.5 252.8 81.3 252.7 81.2 252.5 81 252.4 80.9 252.2 80.7 252 80.5 251.8 80.4 251.6 80.2 251.4 80.1 251.3 80 251.2 79.9 251.2 79.9 251.1 79.9L134.1 1.8C130.4-0.6 125.6-0.6 121.9 1.8L4.9 79.8C4.8 79.9 4.8 79.9 4.7 80 4.5 80.1 4.4 80.2 4.2 80.4 4 80.5 3.8 80.7 3.6 80.9 3.4 81 3.3 81.2 3.2 81.3 3 81.5 2.8 81.7 2.6 81.9 2.5 82.1 2.4 82.2 2.2 82.4 2.1 82.6 1.9 82.8 1.8 83.1 1.7 83.2 1.6 83.4 1.5 83.6 1.3 83.8 1.2 84 1.1 84.3 1 84.5 0.9 84.6 0.8 84.8 0.7 85.1 0.6 85.4 0.5 85.6 0.5 85.8 0.4 86 0.4 86.1 0.3 86.4 0.2 86.8 0.2 87.1 0.2 87.2 0.1 87.4 0.1 87.5 0 88 0 88.5 0 89L0 167C0 167.5 0 168 0.1 168.4 0.1 168.6 0.2 168.7 0.2 168.9 0.3 169.2 0.3 169.5 0.4 169.8 0.5 170 0.5 170.2 0.6 170.4 0.7 170.6 0.8 170.9 0.9 171.2 0.9 171.3 1 171.5 1.1 171.7 1.2 171.9 1.3 172.2 1.5 172.4 1.6 172.6 1.7 172.8 1.8 172.9 1.9 173.2 2.1 173.4 2.3 173.6 2.4 173.8 2.5 173.9 2.7 174.1 2.8 174.3 3 174.5 3.2 174.7 3.3 174.8 3.5 175 3.7 175.1 3.9 175.2 4.1 175.4 4.3 175.6 4.4 175.7 4.6 175.8 4.8 176 4.8 176 4.9 176.1 4.9 176.1L121.9 254.1C123.7 255.4 125.9 256 128 256 130.1 256 132.3 255.4 134.1 254.1L251.1 176.1C251.2 176.1 251.2 176.1 251.3 176 251.5 175.9 251.6 175.8 251.8 175.6 252 175.5 252.2 175.3 252.4 175.1 252.6 175 252.7 174.8 252.8 174.7 253 174.5 253.2 174.3 253.4 174.1 253.5 173.9 253.6 173.8 253.8 173.6 253.9 173.4 254.1 173.2 254.2 172.9 254.3 172.8 254.4 172.6 254.5 172.4 254.7 172.2 254.8 172 254.9 171.7 255 171.5 255.1 171.4 255.2 171.2 255.3 170.9 255.4 170.6 255.5 170.4 255.5 170.2 255.6 170 255.6 169.8 255.7 169.5 255.8 169.2 255.8 168.9 255.8 168.8 255.9 168.6 255.9 168.4 256 168 256 167.5 256 167L256 89C256 88.5 256 88 255.9 87.6 255.9 87.4 255.8 87.3 255.8 87.1L255.8 87.1ZM128 154L89.1 128 128 102 166.9 128 128 154 128 154ZM117 82.9L69.3 114.8 30.8 89 117 31.6 117 82.9 117 82.9ZM49.5 128L22 146.4 22 109.6 49.5 128 49.5 128ZM69.3 141.2L117 173.1 117 224.4 30.8 167 69.3 141.2 69.3 141.2ZM139 173.1L186.7 141.2 225.2 167 139 224.4 139 173.1 139 173.1ZM206.5 128L234 109.6 234 146.4 206.5 128 206.5 128ZM186.7 114.8L139 82.9 139 31.6 225.2 89 186.7 114.8 186.7 114.8Z" fill="#ccc"/></svg>
 
