<svg xmlns="http://www.w3.org/2000/svg" width="256" height="194" viewBox="0 0 256 194" preserveAspectRatio="xMidYMid"><style>.a{fill:#D54B3D;}.b{fill:#D72B27;}</style><defs><linearGradient y1="50" x2="100" y2="50"><stop stop-color="#000000" offset="0%" stop-opacity="0.1"/><stop stop-color="#000000" offset="100%" stop-opacity="0.2"/></linearGradient></defs><path d="M238.8 193.6L16.2 193.6C7.5 193.6 0.2 186.6 0.2 177.7L0.2 16.8C0.2 8.2 7.3 0.9 16.2 0.9L238.8 0.9C247.5 0.9 254.7 8 254.7 16.8L254.7 177.7C254.7 186.6 247.7 193.6 238.8 193.6L238.8 193.6Z" fill="#E3E3E3"/><path d="M32.1 193.6L127.3 117 127.9 112.9 29.8 42.3 29.6 190.2 32.1 193.6Z" style="fill:#231F20;opacity:0.1"/><path d="M16.2 193.6C7.3 193.6 0.2 186.6 0.2 177.7L0.2 16.6C0.2 7.7 7.3 6.1 16.2 6.1 25 6.1 32.1 8 32.1 16.6L32.1 193.6 16.2 193.6 16.2 193.6Z" class="a"/><path d="M16.2 8.4C27.5 8.4 29.8 11.8 29.8 16.6L29.8 191.3 16.2 191.3C8.7 191.3 2.5 185.2 2.5 177.7L2.5 16.6C2.5 11.6 4.8 8.4 16.2 8.4L16.2 8.4ZM16.2 6.1C7.3 6.1 0.2 8 0.2 16.6L0.2 177.7C0.2 186.6 7.3 193.6 16.2 193.6L32.1 193.6 32.1 16.6C32.1 7.7 25 6.1 16.2 6.1L16.2 6.1 16.2 6.1Z" class="b"/><path d="M238.8 193.6L222.9 193.6 222.9 16.1C222.9 7.3 230 6.1 238.8 6.1 247.7 6.1 254.7 7.3 254.7 16.1L254.7 177.9C254.7 186.6 247.7 193.6 238.8 193.6L238.8 193.6Z" class="a"/><path d="M238.8 8.4C249.1 8.4 252.5 10.5 252.5 16.1L252.5 177.9C252.5 185.4 246.3 191.5 238.8 191.5L225.2 191.5 225.2 16.1C225.2 10.2 228.6 8.4 238.8 8.4L238.8 8.4ZM238.8 6.1C230 6.1 222.9 7.3 222.9 16.1L222.9 193.8 238.8 193.8C247.7 193.8 254.7 186.8 254.7 177.9L254.7 16.1C254.7 7.3 247.7 6.1 238.8 6.1L238.8 6.1 238.8 6.1Z" class="b"/><path d="M170.7 193.6L1.6 23.2 10.5 26.8 128.2 111.6 254.7 18.8 254.7 177.9C254.7 186.6 247.7 193.6 238.8 193.6L170.7 193.6Z" fill="url(#linearGradient-1)"/><path d="M127.3 117L7.1 29.8C0 24.5-2 14.5 3.2 7.5 8.4 0.5 18.7-1.1 25.9 4.1L127.5 77.9 229.7 3.2C236.8-2 246.8-0.5 252 6.8 257.2 13.9 255.6 23.9 248.4 29.1L127.3 117 127.3 117Z" class="a"/><path d="M238.8 2.3L238.8 2.3C243.2 2.3 247.2 4.3 250 8 254.3 14.1 252.9 22.5 247 27L127.3 114.3 8.4 27.9C2.3 23.4 0.7 14.8 5 8.9 7.5 5.5 11.8 3.2 16.4 3.2 19.3 3.2 22.3 4.1 24.6 5.9L125.9 79.5 127.3 80.4 128.6 79.5 230.7 4.8C233.2 3.2 235.9 2.3 238.8 2.3L238.8 2.3ZM238.8 0C235.7 0 232.2 0.9 229.5 3L127.3 77.7 25.7 3.9C23 1.8 19.6 0.9 16.2 0.9 11.2 0.9 6.2 3.2 3 7.5 -2 14.5 0 24.5 7.1 29.8L127.3 117.2 248.2 29.1C255.2 23.9 256.8 14.1 251.8 6.8 248.6 2.3 243.8 0 238.8 0L238.8 0 238.8 0Z" class="b"/></svg>
