<svg xmlns="http://www.w3.org/2000/svg" height="1000" width="1000"><path d="M0 250q0-33.2 20.5-58.6t51.8-33.2l406.2-93.7q11.7-2 21.5-2t21.5 2l406.2 93.7q31.2 7.8 51.8 33.2t20.5 58.6-20.5 58.6-51.8 33.2l-84 19.5 0 263.7q0 68.4-84 112.3t-259.7 43.9-259.7-43.9-84-112.3l0-263.7 -84-19.5q-31.2-7.8-51.8-33.2t-20.5-58.6zm62.5 0q0 25.4 23.4 31.2l406.2 93.7 15.6 0 406.2-93.7q23.4-5.9 23.4-31.2t-23.4-31.2l-406.2-93.7 -15.6 0 -406.2 93.7q-23.4 5.9-23.4 31.2zm156.2 375q0 19.5 29.3 40t96.7 37.1 155.3 16.6 155.3-16.6 96.7-37.1 29.3-40l0-250 -259.7 60.5q-11.7 2-21.5 2t-21.5-2l-259.7-60.5 0 250zm656.2 250q0-31.2 19.5-78.1t43-46.9 43 46.9 19.5 78.1q0 25.4-18.6 43.9t-43.9 18.6-43.9-18.6-18.6-43.9zm31.2-187.5l0-281.2q0-13.7 8.8-22.5t22.5-8.8 22.5 8.8 8.8 22.5l0 281.2q0 13.7-8.8 22.5t-22.5 8.8-22.5-8.8-8.8-22.5z"/></svg>