<?xml version="1.0" encoding="UTF-8"?>
<!-- Generator: Adobe Illustrator 15.0.2, SVG Export Plug-In . SVG Version: 6.00 Build 0)  -->
<!DOCTYPE svg PUBLIC "-//W3C//DTD SVG 1.1//EN" "http://www.w3.org/Graphics/SVG/1.1/DTD/svg11.dtd">
<svg xmlns="http://www.w3.org/2000/svg" xmlns:xlink="http://www.w3.org/1999/xlink" version="1.1" id="Layer_1" x="0px" y="0px" width="512px" height="511.994px" viewBox="0 0 512 511.994" enable-background="new 0 0 512 511.994" xml:space="preserve">
<g>
	<path d="M14.054,430.136c-18.739,18.731-18.739,49.077,0,67.809c9.366,9.366,21.643,14.049,33.92,14.049   c12.27,0,24.547-4.683,33.912-14.049l157.449-157.44l-67.834-67.809L14.054,430.136z M407.555,138.327l68.512-35.45L512,33.467   L478.531,0l-69.4,35.934l-35.465,68.511l-83.498,83.497l33.889,33.89L407.555,138.327z M422.555,320.336   c-2.186-0.124-4.246-0.655-6.461-0.655c-11.709,0-22.791,2.404-33.156,6.244L186.074,129.062   c3.84-10.365,6.236-21.456,6.236-33.155c0-2.209-0.516-4.285-0.641-6.455C188.283,39.547,147.168,0,96.404,0   C81.637,0,67.791,3.614,55.295,9.592l63.713,63.711c3.355,3.356,5.658,7.321,7.188,11.513c4.191,11.349,1.92,24.547-7.188,33.693   c-6.236,6.236-14.416,9.366-22.604,9.366c-3.77,0-7.516-0.827-11.092-2.17c-4.191-1.568-8.156-3.84-11.512-7.196L10.089,54.791   C4.111,67.293,0.497,81.14,0.497,95.907c0,50.763,39.548,91.879,89.452,95.267c2.17,0.125,4.246,0.64,6.455,0.64   c11.699,0,22.789-2.396,33.154-6.235L326.43,382.433c-3.84,10.364-6.244,21.463-6.244,33.155c0,2.216,0.516,4.292,0.641,6.462   c3.387,49.904,44.504,89.444,95.268,89.444c14.766,0,28.611-3.605,41.115-9.584l-63.719-63.72   c-3.355-3.341-5.65-7.306-7.182-11.505c-4.197-11.348-1.936-24.554,7.182-33.701c6.244-6.229,14.424-9.366,22.604-9.366   c3.777,0,7.523,0.844,11.082,2.186c4.199,1.562,8.164,3.84,11.52,7.181l63.721,63.72c5.963-12.488,9.584-26.35,9.584-41.116   C512,364.825,472.445,323.708,422.555,320.336z" fill="#69E885"/>
</g>
</svg>
