<?xml version="1.0" encoding="UTF-8"?>
<!-- Generator: Adobe Illustrator 15.0.2, SVG Export Plug-In . SVG Version: 6.00 Build 0)  -->
<!DOCTYPE svg PUBLIC "-//W3C//DTD SVG 1.1//EN" "http://www.w3.org/Graphics/SVG/1.1/DTD/svg11.dtd">
<svg xmlns="http://www.w3.org/2000/svg" width="512" height="461" viewBox="0 0 512 460.9"><path d="M510.9 418.7l0.1-0.1 -44.3-76.7h17.4v-0.1c3.6 0 6.6-2.9 6.6-6.6 0-1.1-0.4-2.1-0.8-3.1l0.1-0.1 -40.9-70.9h10v-0.1c2.6 0 4.7-2.1 4.7-4.7 0-0.8-0.3-1.5-0.6-2.2l0.1 0L403.7 151.2l-0.1 0c-1.3-2.7-4-4.6-7.2-4.6 -3.2 0-5.9 1.9-7.2 4.6l0 0 -59.6 103.1 0 0c-0.4 0.7-0.6 1.4-0.6 2.2 0 2.6 2.1 4.7 4.7 4.7v0.1h10.1l-40.9 70.9h0c-0.5 0.9-0.9 2-0.9 3.1 0 3.6 2.9 6.6 6.6 6.6v0.1h17.6l-12.8 22.1 -51-88.4h24.6v-0.1c5.1 0 9.3-4.2 9.3-9.3 0-1.6-0.4-3-1.1-4.4l0.1-0.1 -57.8-100h14.1v-0.1c3.7 0 6.6-3 6.6-6.6 0-1.1-0.4-2.1-0.9-3.1l0.1-0.1L173.4 6.4l0 0C171.5 2.6 167.6 0 163.1 0c-4.6 0-8.6 2.7-10.4 6.7L68.9 152l0 0c-0.5 0.9-0.9 2-0.9 3.1 0 3.7 3 6.6 6.6 6.6v0.1h14.2l-57.1 98.9c-1.2 1.6-1.9 3.5-1.9 5.6 0 5.1 4.2 9.3 9.3 9.3v0.1h24.8L2.4 382.4c-1.5 1.9-2.3 4.3-2.3 6.8 0 6.3 5.1 11.4 11.4 11.4v0.1h120.2v51.2c0 4.9 4 9 9 9h44.9c5 0 9-4 9-9v-51.2h97.9l-10.3 17.9 0 0c-0.6 1.2-1.1 2.4-1.1 3.8 0 4.5 3.6 8 8 8v0.1h85.2v23.9c0 3.5 2.8 6.3 6.4 6.3h31.8c3.5 0 6.4-2.8 6.4-6.3v-23.9h85.4v-0.1c4.4 0 8.1-3.6 8.1-8C512 421.1 511.6 419.8 510.9 418.7z" fill="#69E885"/></svg>
